<svg xmlns="http://www.w3.org/2000/svg" xmlns:xlink="http://www.w3.org/1999/xlink" id="Layer_1" x="0" y="0" enable-background="new 0 0 16 16" version="1.1" viewBox="0 0 16 16" xml:space="preserve"><g><path d="M3,1C1.3,1,0,2.3,0,4s1.3,3,3,3s3-1.3,3-3S4.7,1,3,1z M3,6C1.9,6,1,5.1,1,4c0-1.1,0.9-2,2-2s2,0.9,2,2 C5,5.1,4.1,6,3,6z"/><circle cx="3" cy="4" r="1"/><path d="M11,7c1.7,0,3-1.3,3-3s-1.3-3-3-3S8,2.3,8,4S9.3,7,11,7z M11,2c1.1,0,2,0.9,2,2c0,1.1-0.9,2-2,2S9,5.1,9,4 C9,2.9,9.9,2,11,2z"/><path d="M3,9c-1.7,0-3,1.3-3,3s1.3,3,3,3s3-1.3,3-3S4.7,9,3,9z M3,14c-1.1,0-2-0.9-2-2c0-1.1,0.9-2,2-2s2,0.9,2,2 C5,13.1,4.1,14,3,14z"/><polygon points="8 15 10 15 8 13"/><rect width="5.7" height="2.8" x="9.2" y="9.6" transform="matrix(0.7071 -0.7071 0.7071 0.7071 -4.2635 11.7071)"/></g></svg>