<svg xmlns="http://www.w3.org/2000/svg" xmlns:xlink="http://www.w3.org/1999/xlink" id="Layer_1" x="0" y="0" version="1.1" viewBox="0 0 16 16" style="enable-background:new 0 0 16 16" xml:space="preserve"><g><rect width="10" height="1" x="2" y="8"/><polygon points="2 11 10 11 11 10 2 10"/><polygon points="9 16 11 16 9 14"/><polygon points="14 9 10 13 12 15 16 11"/><polygon points="3 3 3 5 2 5 4 7 6 5 5 5 5 3"/><polygon points="11 5 11 3 9 3 9 5 8 5 10 7 12 5"/><polygon points="1 1 13 1 13 8 14 7 14 0 0 0 0 14 7 14 8 13 1 13"/></g></svg>