<svg xmlns="http://www.w3.org/2000/svg" xmlns:xlink="http://www.w3.org/1999/xlink" id="Layer_1" x="0" y="0" version="1.1" viewBox="0 0 300 300" style="enable-background:new 0 0 300 300" xml:space="preserve"><style type="text/css">.st0{opacity:.3}.st1{fill:#fff}.st2{fill:#d5d4d4}.st3{fill:#19b193}.st4{fill:#f7971f}.st5{fill:#0078d4}</style><g><circle cx="150.94" cy="149.35" r="134.33" class="st5"/><g><g><g class="st0"><polygon points="126.8 73 126.8 73 88.44 73 88.44 208 194.44 208 194.44 73"/></g><rect width="106" height="135" x="93.44" y="68" class="st1"/><g><g><g><rect width="17" height="4" x="135.44" y="142" class="st2"/></g><g><circle cx="124.96" cy="143.64" r="4.64" class="st1"/><path d="M124.82,149.35c-3.04,0-5.51-2.48-5.51-5.51c0-3.04,2.48-5.51,5.51-5.51c3.04,0,5.51,2.48,5.51,5.51 C130.33,146.88,127.86,149.35,124.82,149.35z M124.82,139.98c-2.13,0-3.86,1.73-3.86,3.86s1.73,3.86,3.86,3.86 s3.86-1.73,3.86-3.86C128.68,141.71,126.95,139.98,124.82,139.98z"/></g><g><g><circle cx="124.82" cy="143.84" r=".83" class="st1"/></g><g><path d="M124.82,143.84L124.82,143.84L124.82,143.84 M124.82,142.18c-0.92,0-1.65,0.74-1.65,1.65 c0,0.92,0.74,1.65,1.65,1.65c0.92,0,1.65-0.74,1.65-1.65C126.47,142.92,125.73,142.18,124.82,142.18L124.82,142.18z" class="st3"/></g></g></g><g><g><rect width="17" height="4" x="174.44" y="142" class="st2"/></g><g><circle cx="164.32" cy="143.64" r="4.64" class="st1"/><path d="M164.25,149.35c-3.04,0-5.51-2.48-5.51-5.51c0-3.04,2.48-5.51,5.51-5.51c3.04,0,5.51,2.48,5.51,5.51 C169.77,146.88,167.3,149.35,164.25,149.35z M164.25,139.98c-2.13,0-3.86,1.73-3.86,3.86s1.73,3.86,3.86,3.86 s3.86-1.73,3.86-3.86C168.12,141.71,166.39,139.98,164.25,139.98z"/></g><g><g><circle cx="164.25" cy="143.84" r=".83" class="st1"/></g><g><path d="M164.25,143.84L164.25,143.84L164.25,143.84 M164.25,142.18c-0.92,0-1.65,0.74-1.65,1.65 c0,0.92,0.74,1.65,1.65,1.65c0.92,0,1.65-0.74,1.65-1.65C165.91,142.92,165.17,142.18,164.25,142.18L164.25,142.18z" class="st3"/></g></g></g><g><g><rect width="17" height="4" x="174.44" y="157" class="st2"/></g><g><circle cx="164.32" cy="159.11" r="4.64" class="st1"/><path d="M164.25,164.8c-3.04,0-5.51-2.48-5.51-5.51c0-3.04,2.48-5.51,5.51-5.51c3.04,0,5.51,2.48,5.51,5.51 S167.3,164.8,164.25,164.8z M164.25,155.42c-2.13,0-3.86,1.73-3.86,3.86s1.73,3.86,3.86,3.86s3.86-1.73,3.86-3.86 C168.12,157.15,166.39,155.42,164.25,155.42z"/></g><g><g><circle cx="164.25" cy="159.28" r=".83" class="st1"/></g><g><path d="M164.25,159.28L164.25,159.28L164.25,159.28 M164.25,157.62c-0.92,0-1.65,0.74-1.65,1.65 c0,0.92,0.74,1.65,1.65,1.65c0.92,0,1.65-0.74,1.65-1.65C165.91,158.37,165.17,157.62,164.25,157.62L164.25,157.62z" class="st3"/></g></g></g><g><g><rect width="17" height="4" x="135.44" y="157" class="st2"/></g><g><circle cx="124.96" cy="159.11" r="4.64" class="st1"/><path d="M124.82,164.8c-3.04,0-5.51-2.48-5.51-5.51c0-3.04,2.48-5.51,5.51-5.51c3.04,0,5.51,2.48,5.51,5.51 C130.33,162.32,127.86,164.8,124.82,164.8z M124.82,155.42c-2.13,0-3.86,1.73-3.86,3.86s1.73,3.86,3.86,3.86 s3.86-1.73,3.86-3.86C128.68,157.15,126.95,155.42,124.82,155.42z"/></g><g><g><circle cx="124.82" cy="159.28" r=".83" class="st1"/></g><g><path d="M124.82,159.28L124.82,159.28L124.82,159.28 M124.82,157.62c-0.92,0-1.65,0.74-1.65,1.65 c0,0.92,0.74,1.65,1.65,1.65c0.92,0,1.65-0.74,1.65-1.65S125.73,157.62,124.82,157.62L124.82,157.62z" class="st3"/></g></g></g></g><g><g><g><rect width="9" height="9" x="120.44" y="83" class="st1"/><path d="M129.44,84v8h-8v-8H129.44 M131.44,82h-12v12h12V82L131.44,82z"/></g><rect width="54" height="4" x="137.44" y="82" class="st2"/><rect width="54" height="4" x="137.44" y="90" class="st2"/><polygon points="132.11 84.75 132.11 84.75 131.13 83.78 126.17 88.74 123.86 86.42 122.88 87.39 126.17 90.69" class="st3"/><g><rect width="9" height="9" x="120.44" y="100" class="st1"/><path d="M129.44,101v8h-8v-8H129.44 M131.44,99h-12v12h12V99L131.44,99z"/></g><polygon points="132.11 101.75 132.11 101.75 131.13 100.78 126.17 105.74 123.86 103.42 122.88 104.39 126.17 107.69" class="st3"/><g><rect width="9" height="9" x="120.44" y="117" class="st1"/><path d="M129.44,118v8h-8v-8H129.44 M131.44,116h-12v12h12V116L131.44,116z"/></g><polygon points="132.11 118.75 132.11 118.75 131.13 117.78 126.17 122.74 123.86 120.42 122.88 121.39 126.17 124.69" class="st3"/><g><rect width="54" height="4" x="137.44" y="103" class="st2"/></g><g><rect width="54" height="4" x="137.44" y="116" class="st2"/><rect width="27" height="4" x="137.44" y="124" class="st2"/></g></g></g><g><path d="M104.44,93h-2v-8.1c-0.85,0.73-1.85,1.28-3,1.63v-1.75c0.57-0.18,1.19-0.52,1.86-1.02 c0.67-0.5,1.13-1.08,1.37-1.75h1.77V93z" class="st2"/><path d="M108.44,93v-2h2v2H108.44z" class="st2"/></g><g><path d="M106.44,147v2H98.9c0.08-0.76,0.33-1.47,0.74-2.15c0.41-0.68,1.22-1.57,2.42-2.69 c0.97-0.9,1.57-1.52,1.79-1.84c0.3-0.44,0.44-0.88,0.44-1.32c0-0.48-0.13-0.85-0.39-1.11c-0.26-0.26-0.61-0.39-1.07-0.39 c-0.45,0-0.81,0.14-1.07,0.41c-0.27,0.27-0.42,0.72-0.46,1.35l-2.15-0.21c0.13-1.19,0.53-2.04,1.2-2.55 c0.67-0.52,1.52-0.77,2.53-0.77c1.11,0,1.98,0.3,2.61,0.9c0.63,0.6,0.95,1.34,0.95,2.23c0,0.51-0.09,0.99-0.27,1.44 c-0.18,0.46-0.47,0.94-0.86,1.44c-0.26,0.33-0.73,0.81-1.41,1.43c-0.68,0.62-1.11,1.04-1.29,1.24c-0.18,0.2-0.33,0.4-0.44,0.6 H106.44z" class="st2"/><path d="M108.44,149v-2h2v2H108.44z" class="st2"/></g><g><path d="M98.83,185.21l2.08-0.25c0.07,0.53,0.24,0.94,0.54,1.22c0.29,0.28,0.64,0.42,1.06,0.42 c0.44,0,0.82-0.17,1.12-0.5c0.3-0.34,0.46-0.79,0.46-1.36c0-0.54-0.15-0.97-0.44-1.29c-0.29-0.32-0.65-0.47-1.06-0.47 c-0.28,0-0.6,0.05-0.99,0.16l0.24-1.75c0.58,0.02,1.03-0.11,1.33-0.38c0.31-0.27,0.46-0.62,0.46-1.07c0-0.38-0.11-0.68-0.34-0.9 c-0.22-0.22-0.52-0.34-0.9-0.34c-0.37,0-0.68,0.13-0.94,0.38c-0.26,0.26-0.42,0.63-0.47,1.12l-1.98-0.34 c0.14-0.68,0.35-1.22,0.62-1.63c0.28-0.41,0.67-0.72,1.16-0.96c0.5-0.23,1.05-0.35,1.67-0.35c1.06,0,1.9,0.34,2.54,1.01 c0.53,0.55,0.79,1.17,0.79,1.87c0,0.98-0.54,1.77-1.61,2.36c0.64,0.14,1.16,0.45,1.54,0.93c0.39,0.48,0.58,1.06,0.58,1.74 c0,0.98-0.36,1.82-1.08,2.52c-0.72,0.69-1.61,1.04-2.69,1.04c-1.02,0-1.86-0.29-2.53-0.88S98.94,186.16,98.83,185.21z" class="st2"/><path d="M108.44,188v-2h2v2H108.44z" class="st2"/></g><rect width="72" height="11" x="119.44" y="177" class="st2"/><circle cx="198.6" cy="206.24" r="35.15" class="st0"/><g><circle cx="203.44" cy="203" r="35" class="st4"/><path d="M203.44,226L203.44,226c-2.2,0-4-1.8-4-4v-38c0-2.2,1.8-4,4-4l0,0c2.2,0,4,1.8,4,4v38 C207.44,224.2,205.64,226,203.44,226z" class="st1"/><path d="M180.44,203L180.44,203c0-2.2,1.8-4,4-4h38c2.2,0,4,1.8,4,4l0,0c0,2.2-1.8,4-4,4h-38 C182.24,207,180.44,205.2,180.44,203z" class="st1"/></g></g></g></g></svg>