<svg xmlns="http://www.w3.org/2000/svg" xmlns:xlink="http://www.w3.org/1999/xlink" id="Layer_1" x="0" y="0" version="1.1" viewBox="0 0 16 16" style="enable-background:new 0 0 16 16" xml:space="preserve"><g><rect width="2" height="2" x="3" y="7"/><rect width="2" height="2" x="7" y="11"/><rect width="2" height="2" x="3" y="11"/><rect width="2" height="2" x="11" y="11"/><rect width="2" height="2" x="11" y="7"/><path d="M10,6H6v4h4V6z M9,9H7V7h2V9z"/><rect width="1" height="3" x="4"/><rect width="1" height="3" x="11"/><path d="M13,2v2h-3V2H6v2H3V2H0v14h16V2H13z M15,15H1V5h14V15z"/></g></svg>